<mxfile host="www.draw.io" modified="2020-02-26T05:56:55.818Z" agent="Mozilla/5.0 (Macintosh; Intel Mac OS X 10_14_5) AppleWebKit/537.36 (KHTML, like Gecko) Chrome/80.0.3987.116 Safari/537.36" etag="iNNwdvEsbYxev0FWzNdr" version="12.7.6" type="github">
  <diagram id="A04N61mchk_1eaoA9pmB" name="Page-1">
    <mxGraphModel dx="543" dy="283" grid="1" gridSize="10" guides="1" tooltips="1" connect="1" arrows="1" fold="1" page="1" pageScale="1" pageWidth="1169" pageHeight="1654" math="0" shadow="0">
      <root>
        <mxCell id="0" />
        <mxCell id="1" parent="0" />
        <mxCell id="KUp_mzP3VPPAdqyAgSxF-36" value="" style="rounded=1;whiteSpace=wrap;html=1;shadow=0;glass=0;comic=0;fillColor=#d5e8d4;strokeColor=#82b366;opacity=40;" vertex="1" parent="1">
          <mxGeometry x="520" y="240" width="290" height="190" as="geometry" />
        </mxCell>
        <mxCell id="KUp_mzP3VPPAdqyAgSxF-37" value="" style="rounded=1;whiteSpace=wrap;html=1;shadow=0;glass=0;comic=0;fillColor=#dae8fc;strokeColor=#6c8ebf;" vertex="1" parent="1">
          <mxGeometry x="635" y="260" width="60" height="20" as="geometry" />
        </mxCell>
      </root>
    </mxGraphModel>
  </diagram>
</mxfile>
